<?xml version="1.0" encoding="UTF-8"?>
<svg xmlns="http://www.w3.org/2000/svg" xmlns:xlink="http://www.w3.org/1999/xlink" width="630" height="468" viewBox="185 266 630 468" shape-rendering="geometricPrecision">
<defs>
<clipPath id="clip-text">
    <path clip-rule="nonzero" d="M 751.058594 460.925781 L 721.398438 536.015625 L 737.667969 536.015625 L 764.449219 468.058594 C 765.324219 466.058594 766.703125 465.179688 768.703125 465.179688 C 770.707031 465.179688 772.082031 466.058594 772.835938 468.058594 L 798.488281 536.015625 L 814.882812 536.015625 L 786.351562 460.925781 C 783.347656 453.042969 777.589844 450.039062 768.828125 450.039062 C 759.945312 450.039062 754.1875 453.042969 751.058594 460.925781 M 214.777344 460.925781 L 185.117188 536.015625 L 201.386719 536.015625 L 228.167969 468.058594 C 229.042969 466.058594 230.421875 465.179688 232.421875 465.179688 C 234.425781 465.179688 235.800781 466.058594 236.550781 468.058594 L 262.207031 536.015625 L 278.601562 536.015625 L 250.066406 460.925781 C 247.0625 453.042969 241.308594 450.039062 232.546875 450.039062 C 223.660156 450.039062 217.90625 453.042969 214.777344 460.925781 M 614.644531 451.539062 L 614.644531 466.308594 L 660.949219 466.308594 C 669.082031 466.308594 672.710938 471.4375 672.710938 477.445312 C 672.710938 483.453125 669.332031 489.210938 660.949219 489.210938 L 628.035156 489.210938 C 618.773438 489.210938 614.769531 493.089844 614.769531 502.601562 L 614.769531 536.015625 L 629.535156 536.015625 L 629.535156 505.480469 C 629.535156 503.976562 630.289062 503.351562 631.664062 503.351562 L 653.691406 503.351562 L 672.960938 536.015625 L 689.355469 536.015625 L 669.710938 502.222656 C 682.597656 498.597656 687.605469 487.332031 687.605469 476.820312 C 687.605469 463.304688 679.46875 451.539062 660.449219 451.539062 Z M 528.289062 451.539062 C 508.390625 451.539062 500.003906 461.050781 500.003906 474.566406 C 500.003906 483.828125 504.007812 490.335938 511.894531 493.589844 C 504.136719 496.84375 499.753906 503.351562 499.753906 512.988281 C 499.753906 526.128906 507.890625 536.015625 527.910156 536.015625 L 570.710938 536.015625 L 570.710938 521.246094 L 527.910156 521.246094 C 519.277344 521.246094 515.144531 517.242188 515.144531 510.609375 C 515.144531 503.726562 519.527344 500.347656 528.035156 500.347656 L 569.960938 500.347656 L 569.960938 486.957031 L 528.410156 486.957031 C 519.902344 486.957031 515.523438 483.828125 515.523438 476.945312 C 515.523438 470.4375 519.402344 466.308594 528.289062 466.308594 L 570.585938 466.308594 L 570.585938 451.539062 Z M 400.007812 451.539062 L 400.007812 466.308594 L 424.660156 466.308594 L 424.660156 536.015625 L 439.554688 536.015625 L 439.554688 466.308594 L 464.207031 466.308594 L 464.207031 451.539062 Z M 310.394531 451.539062 L 310.394531 506.855469 C 310.394531 523.75 319.15625 536.015625 341.558594 536.015625 L 375.222656 536.015625 L 375.222656 521.246094 L 342.433594 521.246094 C 329.167969 521.246094 325.164062 514.863281 325.164062 506.730469 L 325.164062 451.539062 Z M 310.394531 451.539062 "/>
</clipPath>
<clipPath id="clip-orbits">
    <path clip-rule="nonzero" d="M 367.648438 307.609375 C 329.542969 333.871094 300.335938 370.375 283.183594 413.175781 C 281.035156 418.53125 283.636719 424.609375 288.988281 426.753906 C 290.265625 427.265625 291.578125 427.503906 292.871094 427.503906 C 297.011719 427.503906 300.933594 425.023438 302.566406 420.945312 C 335.085938 339.8125 412.582031 287.386719 500 287.386719 C 587.417969 287.386719 664.914062 339.8125 697.433594 420.945312 C 699.578125 426.296875 705.65625 428.898438 711.011719 426.753906 C 716.363281 424.609375 718.960938 418.527344 716.816406 413.175781 C 699.664062 370.375 670.453125 333.871094 632.351562 307.609375 C 593.328125 280.71875 547.5625 266.503906 500 266.503906 C 452.4375 266.503906 406.671875 280.71875 367.648438 307.609375 M 338.15625 412.257812 C 335.402344 417.324219 337.28125 423.664062 342.347656 426.414062 C 343.933594 427.277344 345.640625 427.6875 347.324219 427.6875 C 351.027344 427.6875 354.613281 425.710938 356.507812 422.226562 C 379.460938 379.96875 419.386719 350.574219 465.191406 340.585938 C 466.523438 330.996094 471.730469 322.628906 479.183594 317.132812 C 419.902344 323.859375 367.085938 359.007812 338.15625 412.257812 M 534.808594 340.585938 C 580.546875 350.5625 620.433594 379.898438 643.398438 422.058594 C 646.160156 427.121094 652.503906 428.992188 657.566406 426.230469 C 662.628906 423.472656 664.496094 417.132812 661.738281 412.066406 C 632.792969 358.933594 580.015625 323.855469 520.816406 317.136719 C 528.269531 322.632812 533.480469 330.996094 534.808594 340.585938 M 475.785156 338.640625 C 475.179688 340.804688 474.851562 343.078125 474.851562 345.433594 C 474.851562 359.324219 486.109375 370.585938 500 370.585938 C 513.890625 370.585938 525.148438 359.324219 525.148438 345.433594 C 525.148438 343.078125 524.820312 340.804688 524.214844 338.640625 C 521.25 328.054688 511.535156 320.285156 500 320.285156 C 488.464844 320.285156 478.75 328.050781 475.785156 338.640625 M 587.628906 418 C 587.628906 423.347656 591.964844 427.6875 597.3125 427.6875 C 602.660156 427.6875 606.996094 423.347656 606.996094 418 C 606.996094 412.652344 602.660156 408.316406 597.3125 408.316406 C 591.964844 408.316406 587.628906 412.652344 587.628906 418 M 393.003906 418 C 393.003906 423.347656 397.339844 427.6875 402.6875 427.6875 C 408.039062 427.6875 412.371094 423.347656 412.371094 418 C 412.371094 412.652344 408.039062 408.316406 402.6875 408.316406 C 397.339844 408.316406 393.003906 412.652344 393.003906 418 M 648.359375 568.050781 C 628.546875 611.175781 591.082031 642.898438 546.925781 656.226562 C 542.550781 657.550781 539.589844 661.625 539.589844 666.195312 C 539.589844 673.175781 546.320312 678.238281 553.003906 676.21875 C 602.65625 661.207031 644.800781 625.554688 667.179688 577.113281 C 669.523438 572.039062 667.710938 565.835938 662.78125 563.207031 C 661.199219 562.363281 659.511719 561.964844 657.855469 561.964844 C 653.898438 561.964844 650.117188 564.222656 648.359375 568.050781 M 701.160156 569.023438 C 671.699219 654.90625 590.859375 712.613281 500 712.613281 C 409.140625 712.613281 328.300781 654.910156 298.839844 569.023438 C 296.96875 563.570312 291.03125 560.664062 285.574219 562.535156 C 280.117188 564.40625 277.214844 570.34375 279.085938 575.796875 C 311.441406 670.121094 400.222656 733.496094 500 733.496094 C 599.777344 733.496094 688.558594 670.121094 720.914062 575.796875 C 722.785156 570.34375 719.882812 564.40625 714.425781 562.53125 C 713.304688 562.148438 712.160156 561.964844 711.039062 561.964844 C 706.703125 561.964844 702.648438 564.6875 701.160156 569.023438 M 338.480469 562.636719 C 332.757812 564.800781 330.152344 571.308594 332.664062 576.769531 C 355.007812 625.394531 397.238281 661.183594 447.015625 676.222656 C 453.691406 678.238281 460.40625 673.171875 460.40625 666.199219 C 460.40625 661.636719 457.460938 657.550781 453.089844 656.234375 C 409.046875 642.941406 371.652344 611.347656 351.796875 568.390625 C 349.988281 564.480469 346.089844 561.988281 342.011719 561.988281 C 340.832031 561.988281 339.640625 562.195312 338.480469 562.636719 M 490.246094 672.785156 C 490.246094 678.695312 495.035156 683.484375 500.945312 683.484375 C 506.851562 683.484375 511.640625 678.695312 511.640625 672.785156 C 511.640625 666.878906 506.851562 662.089844 500.945312 662.089844 C 495.035156 662.089844 490.246094 666.878906 490.246094 672.785156"/>
</clipPath>
<linearGradient id="orbit-gradient" gradientUnits="userSpaceOnUse" x1="500" y1="266" x2="500" y2="734">
<stop offset="0.000000" stop-color="rgb(85.50000%, 85.50000%, 87.30000%)" stop-opacity="1"/>
<stop offset="0.003922" stop-color="rgb(85.43950%, 85.49500%, 87.45828%)" stop-opacity="1"/>
<stop offset="0.007843" stop-color="rgb(85.37612%, 85.48735%, 87.61456%)" stop-opacity="1"/>
<stop offset="0.011765" stop-color="rgb(85.30988%, 85.47708%, 87.76885%)" stop-opacity="1"/>
<stop offset="0.015686" stop-color="rgb(85.24079%, 85.46418%, 87.92114%)" stop-opacity="1"/>
<stop offset="0.019608" stop-color="rgb(85.16886%, 85.44869%, 88.07144%)" stop-opacity="1"/>
<stop offset="0.023529" stop-color="rgb(85.09412%, 85.43060%, 88.21975%)" stop-opacity="1"/>
<stop offset="0.027451" stop-color="rgb(85.01658%, 85.40993%, 88.36608%)" stop-opacity="1"/>
<stop offset="0.031373" stop-color="rgb(84.93626%, 85.38669%, 88.51042%)" stop-opacity="1"/>
<stop offset="0.035294" stop-color="rgb(84.85316%, 85.36089%, 88.65277%)" stop-opacity="1"/>
<stop offset="0.039216" stop-color="rgb(84.76731%, 85.33255%, 88.79315%)" stop-opacity="1"/>
<stop offset="0.043137" stop-color="rgb(84.67872%, 85.30168%, 88.93154%)" stop-opacity="1"/>
<stop offset="0.047059" stop-color="rgb(84.58741%, 85.26828%, 89.06796%)" stop-opacity="1"/>
<stop offset="0.050980" stop-color="rgb(84.49340%, 85.23238%, 89.20240%)" stop-opacity="1"/>
<stop offset="0.054902" stop-color="rgb(84.39669%, 85.19399%, 89.33486%)" stop-opacity="1"/>
<stop offset="0.058824" stop-color="rgb(84.29731%, 85.15311%, 89.46536%)" stop-opacity="1"/>
<stop offset="0.062745" stop-color="rgb(84.19527%, 85.10975%, 89.59389%)" stop-opacity="1"/>
<stop offset="0.066667" stop-color="rgb(84.09058%, 85.06394%, 89.72044%)" stop-opacity="1"/>
<stop offset="0.070588" stop-color="rgb(83.98327%, 85.01569%, 89.84504%)" stop-opacity="1"/>
<stop offset="0.074510" stop-color="rgb(83.87335%, 84.96499%, 89.96767%)" stop-opacity="1"/>
<stop offset="0.078431" stop-color="rgb(83.76082%, 84.91188%, 90.08833%)" stop-opacity="1"/>
<stop offset="0.082353" stop-color="rgb(83.64572%, 84.85635%, 90.20704%)" stop-opacity="1"/>
<stop offset="0.086275" stop-color="rgb(83.52805%, 84.79843%, 90.32379%)" stop-opacity="1"/>
<stop offset="0.090196" stop-color="rgb(83.40784%, 84.73812%, 90.43858%)" stop-opacity="1"/>
<stop offset="0.094118" stop-color="rgb(83.28509%, 84.67544%, 90.55142%)" stop-opacity="1"/>
<stop offset="0.098039" stop-color="rgb(83.15982%, 84.61039%, 90.66231%)" stop-opacity="1"/>
<stop offset="0.101961" stop-color="rgb(83.03205%, 84.54300%, 90.77125%)" stop-opacity="1"/>
<stop offset="0.105882" stop-color="rgb(82.90179%, 84.47326%, 90.87824%)" stop-opacity="1"/>
<stop offset="0.109804" stop-color="rgb(82.76906%, 84.40121%, 90.98329%)" stop-opacity="1"/>
<stop offset="0.113725" stop-color="rgb(82.63388%, 84.32684%, 91.08639%)" stop-opacity="1"/>
<stop offset="0.117647" stop-color="rgb(82.49626%, 84.25016%, 91.18754%)" stop-opacity="1"/>
<stop offset="0.121569" stop-color="rgb(82.35621%, 84.17120%, 91.28676%)" stop-opacity="1"/>
<stop offset="0.125490" stop-color="rgb(82.21376%, 84.08997%, 91.38404%)" stop-opacity="1"/>
<stop offset="0.129412" stop-color="rgb(82.06891%, 84.00646%, 91.47939%)" stop-opacity="1"/>
<stop offset="0.133333" stop-color="rgb(81.92169%, 83.92071%, 91.57280%)" stop-opacity="1"/>
<stop offset="0.137255" stop-color="rgb(81.77211%, 83.83272%, 91.66428%)" stop-opacity="1"/>
<stop offset="0.141176" stop-color="rgb(81.62018%, 83.74250%, 91.75383%)" stop-opacity="1"/>
<stop offset="0.145098" stop-color="rgb(81.46592%, 83.65006%, 91.84145%)" stop-opacity="1"/>
<stop offset="0.149020" stop-color="rgb(81.30935%, 83.55542%, 91.92714%)" stop-opacity="1"/>
<stop offset="0.152941" stop-color="rgb(81.15048%, 83.45858%, 92.01091%)" stop-opacity="1"/>
<stop offset="0.156863" stop-color="rgb(80.98933%, 83.35957%, 92.09276%)" stop-opacity="1"/>
<stop offset="0.160784" stop-color="rgb(80.82591%, 83.25839%, 92.17269%)" stop-opacity="1"/>
<stop offset="0.164706" stop-color="rgb(80.66025%, 83.15506%, 92.25070%)" stop-opacity="1"/>
<stop offset="0.168627" stop-color="rgb(80.49234%, 83.04959%, 92.32679%)" stop-opacity="1"/>
<stop offset="0.172549" stop-color="rgb(80.32222%, 82.94198%, 92.40097%)" stop-opacity="1"/>
<stop offset="0.176471" stop-color="rgb(80.14990%, 82.83225%, 92.47324%)" stop-opacity="1"/>
<stop offset="0.180392" stop-color="rgb(79.97538%, 82.72042%, 92.54360%)" stop-opacity="1"/>
<stop offset="0.184314" stop-color="rgb(79.79870%, 82.60650%, 92.61205%)" stop-opacity="1"/>
<stop offset="0.188235" stop-color="rgb(79.61986%, 82.49049%, 92.67859%)" stop-opacity="1"/>
<stop offset="0.192157" stop-color="rgb(79.43887%, 82.37241%, 92.74323%)" stop-opacity="1"/>
<stop offset="0.196078" stop-color="rgb(79.25577%, 82.25228%, 92.80596%)" stop-opacity="1"/>
<stop offset="0.200000" stop-color="rgb(79.07055%, 82.13010%, 92.86680%)" stop-opacity="1"/>
<stop offset="0.203922" stop-color="rgb(78.88324%, 82.00589%, 92.92574%)" stop-opacity="1"/>
<stop offset="0.207843" stop-color="rgb(78.69385%, 81.87965%, 92.98278%)" stop-opacity="1"/>
<stop offset="0.211765" stop-color="rgb(78.50240%, 81.75141%, 93.03793%)" stop-opacity="1"/>
<stop offset="0.215686" stop-color="rgb(78.30891%, 81.62117%, 93.09118%)" stop-opacity="1"/>
<stop offset="0.219608" stop-color="rgb(78.11338%, 81.48895%, 93.14254%)" stop-opacity="1"/>
<stop offset="0.223529" stop-color="rgb(77.91584%, 81.35475%, 93.19202%)" stop-opacity="1"/>
<stop offset="0.227451" stop-color="rgb(77.71630%, 81.21860%, 93.23961%)" stop-opacity="1"/>
<stop offset="0.231373" stop-color="rgb(77.51478%, 81.08049%, 93.28531%)" stop-opacity="1"/>
<stop offset="0.235294" stop-color="rgb(77.31128%, 80.94045%, 93.32913%)" stop-opacity="1"/>
<stop offset="0.239216" stop-color="rgb(77.10584%, 80.79849%, 93.37108%)" stop-opacity="1"/>
<stop offset="0.243137" stop-color="rgb(76.89846%, 80.65462%, 93.41114%)" stop-opacity="1"/>
<stop offset="0.247059" stop-color="rgb(76.68916%, 80.50884%, 93.44932%)" stop-opacity="1"/>
<stop offset="0.250980" stop-color="rgb(76.47795%, 80.36118%, 93.48564%)" stop-opacity="1"/>
<stop offset="0.254902" stop-color="rgb(76.26486%, 80.21165%, 93.52008%)" stop-opacity="1"/>
<stop offset="0.258824" stop-color="rgb(76.04989%, 80.06025%, 93.55264%)" stop-opacity="1"/>
<stop offset="0.262745" stop-color="rgb(75.83307%, 79.90700%, 93.58334%)" stop-opacity="1"/>
<stop offset="0.266667" stop-color="rgb(75.61440%, 79.75191%, 93.61218%)" stop-opacity="1"/>
<stop offset="0.270588" stop-color="rgb(75.39391%, 79.59500%, 93.63915%)" stop-opacity="1"/>
<stop offset="0.274510" stop-color="rgb(75.17160%, 79.43627%, 93.66425%)" stop-opacity="1"/>
<stop offset="0.278431" stop-color="rgb(74.94750%, 79.27574%, 93.68750%)" stop-opacity="1"/>
<stop offset="0.282353" stop-color="rgb(74.72163%, 79.11342%, 93.70888%)" stop-opacity="1"/>
<stop offset="0.286275" stop-color="rgb(74.49398%, 78.94932%, 93.72841%)" stop-opacity="1"/>
<stop offset="0.290196" stop-color="rgb(74.26460%, 78.78346%, 93.74609%)" stop-opacity="1"/>
<stop offset="0.294118" stop-color="rgb(74.03348%, 78.61585%, 93.76191%)" stop-opacity="1"/>
<stop offset="0.298039" stop-color="rgb(73.80064%, 78.44649%, 93.77588%)" stop-opacity="1"/>
<stop offset="0.301961" stop-color="rgb(73.56610%, 78.27540%, 93.78801%)" stop-opacity="1"/>
<stop offset="0.305882" stop-color="rgb(73.32988%, 78.10260%, 93.79828%)" stop-opacity="1"/>
<stop offset="0.309804" stop-color="rgb(73.09199%, 77.92810%, 93.80671%)" stop-opacity="1"/>
<stop offset="0.313725" stop-color="rgb(72.85244%, 77.75190%, 93.81330%)" stop-opacity="1"/>
<stop offset="0.317647" stop-color="rgb(72.61126%, 77.57402%, 93.81805%)" stop-opacity="1"/>
<stop offset="0.321569" stop-color="rgb(72.36846%, 77.39447%, 93.82096%)" stop-opacity="1"/>
<stop offset="0.325490" stop-color="rgb(72.12405%, 77.21327%, 93.82203%)" stop-opacity="1"/>
<stop offset="0.329412" stop-color="rgb(71.87805%, 77.03042%, 93.82126%)" stop-opacity="1"/>
<stop offset="0.333333" stop-color="rgb(71.63047%, 76.84594%, 93.81867%)" stop-opacity="1"/>
<stop offset="0.337255" stop-color="rgb(71.38134%, 76.65985%, 93.81424%)" stop-opacity="1"/>
<stop offset="0.341176" stop-color="rgb(71.13066%, 76.47214%, 93.80798%)" stop-opacity="1"/>
<stop offset="0.345098" stop-color="rgb(70.87846%, 76.28284%, 93.79990%)" stop-opacity="1"/>
<stop offset="0.349020" stop-color="rgb(70.62474%, 76.09196%, 93.78999%)" stop-opacity="1"/>
<stop offset="0.352941" stop-color="rgb(70.36953%, 75.89951%, 93.77826%)" stop-opacity="1"/>
<stop offset="0.356863" stop-color="rgb(70.11283%, 75.70550%, 93.76471%)" stop-opacity="1"/>
<stop offset="0.360784" stop-color="rgb(69.85468%, 75.50994%, 93.74933%)" stop-opacity="1"/>
<stop offset="0.364706" stop-color="rgb(69.59507%, 75.31285%, 93.73214%)" stop-opacity="1"/>
<stop offset="0.368627" stop-color="rgb(69.33403%, 75.11424%, 93.71314%)" stop-opacity="1"/>
<stop offset="0.372549" stop-color="rgb(69.07157%, 74.91411%, 93.69232%)" stop-opacity="1"/>
<stop offset="0.376471" stop-color="rgb(68.80771%, 74.71249%, 93.66969%)" stop-opacity="1"/>
<stop offset="0.380392" stop-color="rgb(68.54247%, 74.50939%, 93.64526%)" stop-opacity="1"/>
<stop offset="0.384314" stop-color="rgb(68.27585%, 74.30481%, 93.61901%)" stop-opacity="1"/>
<stop offset="0.388235" stop-color="rgb(68.00788%, 74.09877%, 93.59096%)" stop-opacity="1"/>
<stop offset="0.392157" stop-color="rgb(67.73857%, 73.89128%, 93.56111%)" stop-opacity="1"/>
<stop offset="0.396078" stop-color="rgb(67.46794%, 73.68235%, 93.52945%)" stop-opacity="1"/>
<stop offset="0.400000" stop-color="rgb(67.19600%, 73.47200%, 93.49600%)" stop-opacity="1"/>
<stop offset="0.403922" stop-color="rgb(66.92341%, 73.26094%, 93.46165%)" stop-opacity="1"/>
<stop offset="0.407843" stop-color="rgb(66.65082%, 73.04988%, 93.42729%)" stop-opacity="1"/>
<stop offset="0.411765" stop-color="rgb(66.37824%, 72.83882%, 93.39294%)" stop-opacity="1"/>
<stop offset="0.415686" stop-color="rgb(66.10565%, 72.62776%, 93.35859%)" stop-opacity="1"/>
<stop offset="0.419608" stop-color="rgb(65.83306%, 72.41671%, 93.32424%)" stop-opacity="1"/>
<stop offset="0.423529" stop-color="rgb(65.56047%, 72.20565%, 93.28988%)" stop-opacity="1"/>
<stop offset="0.427451" stop-color="rgb(65.28788%, 71.99459%, 93.25553%)" stop-opacity="1"/>
<stop offset="0.431373" stop-color="rgb(65.01529%, 71.78353%, 93.22118%)" stop-opacity="1"/>
<stop offset="0.435294" stop-color="rgb(64.74271%, 71.57247%, 93.18682%)" stop-opacity="1"/>
<stop offset="0.439216" stop-color="rgb(64.47012%, 71.36141%, 93.15247%)" stop-opacity="1"/>
<stop offset="0.443137" stop-color="rgb(64.19753%, 71.15035%, 93.11812%)" stop-opacity="1"/>
<stop offset="0.447059" stop-color="rgb(63.92494%, 70.93929%, 93.08376%)" stop-opacity="1"/>
<stop offset="0.450980" stop-color="rgb(63.65235%, 70.72824%, 93.04941%)" stop-opacity="1"/>
<stop offset="0.454902" stop-color="rgb(63.37976%, 70.51718%, 93.01506%)" stop-opacity="1"/>
<stop offset="0.458824" stop-color="rgb(63.10718%, 70.30612%, 92.98071%)" stop-opacity="1"/>
<stop offset="0.462745" stop-color="rgb(62.83459%, 70.09506%, 92.94635%)" stop-opacity="1"/>
<stop offset="0.466667" stop-color="rgb(62.56200%, 69.88400%, 92.91200%)" stop-opacity="1"/>
<stop offset="0.470588" stop-color="rgb(62.28941%, 69.67294%, 92.87765%)" stop-opacity="1"/>
<stop offset="0.474510" stop-color="rgb(62.01682%, 69.46188%, 92.84329%)" stop-opacity="1"/>
<stop offset="0.478431" stop-color="rgb(61.74424%, 69.25082%, 92.80894%)" stop-opacity="1"/>
<stop offset="0.482353" stop-color="rgb(61.47165%, 69.03976%, 92.77459%)" stop-opacity="1"/>
<stop offset="0.486275" stop-color="rgb(61.19906%, 68.82871%, 92.74024%)" stop-opacity="1"/>
<stop offset="0.490196" stop-color="rgb(60.92647%, 68.61765%, 92.70588%)" stop-opacity="1"/>
<stop offset="0.494118" stop-color="rgb(60.65388%, 68.40659%, 92.67153%)" stop-opacity="1"/>
<stop offset="0.498039" stop-color="rgb(60.38129%, 68.19553%, 92.63718%)" stop-opacity="1"/>
<stop offset="0.501961" stop-color="rgb(60.10871%, 67.98447%, 92.60282%)" stop-opacity="1"/>
<stop offset="0.505882" stop-color="rgb(59.83612%, 67.77341%, 92.56847%)" stop-opacity="1"/>
<stop offset="0.509804" stop-color="rgb(59.56353%, 67.56235%, 92.53412%)" stop-opacity="1"/>
<stop offset="0.513725" stop-color="rgb(59.29094%, 67.35129%, 92.49976%)" stop-opacity="1"/>
<stop offset="0.517647" stop-color="rgb(59.01835%, 67.14024%, 92.46541%)" stop-opacity="1"/>
<stop offset="0.521569" stop-color="rgb(58.74576%, 66.92918%, 92.43106%)" stop-opacity="1"/>
<stop offset="0.525490" stop-color="rgb(58.47318%, 66.71812%, 92.39671%)" stop-opacity="1"/>
<stop offset="0.529412" stop-color="rgb(58.20059%, 66.50706%, 92.36235%)" stop-opacity="1"/>
<stop offset="0.533333" stop-color="rgb(57.92800%, 66.29600%, 92.32800%)" stop-opacity="1"/>
<stop offset="0.537255" stop-color="rgb(57.65541%, 66.08494%, 92.29365%)" stop-opacity="1"/>
<stop offset="0.541176" stop-color="rgb(57.38282%, 65.87388%, 92.25929%)" stop-opacity="1"/>
<stop offset="0.545098" stop-color="rgb(57.11024%, 65.66282%, 92.22494%)" stop-opacity="1"/>
<stop offset="0.549020" stop-color="rgb(56.83765%, 65.45176%, 92.19059%)" stop-opacity="1"/>
<stop offset="0.552941" stop-color="rgb(56.56506%, 65.24071%, 92.15624%)" stop-opacity="1"/>
<stop offset="0.556863" stop-color="rgb(56.29247%, 65.02965%, 92.12188%)" stop-opacity="1"/>
<stop offset="0.560784" stop-color="rgb(56.01988%, 64.81859%, 92.08753%)" stop-opacity="1"/>
<stop offset="0.564706" stop-color="rgb(55.74729%, 64.60753%, 92.05318%)" stop-opacity="1"/>
<stop offset="0.568627" stop-color="rgb(55.47471%, 64.39647%, 92.01882%)" stop-opacity="1"/>
<stop offset="0.572549" stop-color="rgb(55.20212%, 64.18541%, 91.98447%)" stop-opacity="1"/>
<stop offset="0.576471" stop-color="rgb(54.92953%, 63.97435%, 91.95012%)" stop-opacity="1"/>
<stop offset="0.580392" stop-color="rgb(54.65694%, 63.76329%, 91.91576%)" stop-opacity="1"/>
<stop offset="0.584314" stop-color="rgb(54.38435%, 63.55224%, 91.88141%)" stop-opacity="1"/>
<stop offset="0.588235" stop-color="rgb(54.11176%, 63.34118%, 91.84706%)" stop-opacity="1"/>
<stop offset="0.592157" stop-color="rgb(53.83918%, 63.13012%, 91.81271%)" stop-opacity="1"/>
<stop offset="0.596078" stop-color="rgb(53.56659%, 62.91906%, 91.77835%)" stop-opacity="1"/>
<stop offset="0.600000" stop-color="rgb(53.29400%, 62.70800%, 91.74400%)" stop-opacity="1"/>
<stop offset="0.603922" stop-color="rgb(53.02141%, 62.49694%, 91.70965%)" stop-opacity="1"/>
<stop offset="0.607843" stop-color="rgb(52.74882%, 62.28588%, 91.67529%)" stop-opacity="1"/>
<stop offset="0.611765" stop-color="rgb(52.47624%, 62.07482%, 91.64094%)" stop-opacity="1"/>
<stop offset="0.615686" stop-color="rgb(52.20365%, 61.86376%, 91.60659%)" stop-opacity="1"/>
<stop offset="0.619608" stop-color="rgb(51.93106%, 61.65271%, 91.57224%)" stop-opacity="1"/>
<stop offset="0.623529" stop-color="rgb(51.65847%, 61.44165%, 91.53788%)" stop-opacity="1"/>
<stop offset="0.627451" stop-color="rgb(51.38588%, 61.23059%, 91.50353%)" stop-opacity="1"/>
<stop offset="0.631373" stop-color="rgb(51.11329%, 61.01953%, 91.46918%)" stop-opacity="1"/>
<stop offset="0.635294" stop-color="rgb(50.84071%, 60.80847%, 91.43482%)" stop-opacity="1"/>
<stop offset="0.639216" stop-color="rgb(50.56812%, 60.59741%, 91.40047%)" stop-opacity="1"/>
<stop offset="0.643137" stop-color="rgb(50.29553%, 60.38635%, 91.36612%)" stop-opacity="1"/>
<stop offset="0.647059" stop-color="rgb(50.02294%, 60.17529%, 91.33176%)" stop-opacity="1"/>
<stop offset="0.650980" stop-color="rgb(49.75035%, 59.96424%, 91.29741%)" stop-opacity="1"/>
<stop offset="0.654902" stop-color="rgb(49.47776%, 59.75318%, 91.26306%)" stop-opacity="1"/>
<stop offset="0.658824" stop-color="rgb(49.20518%, 59.54212%, 91.22871%)" stop-opacity="1"/>
<stop offset="0.662745" stop-color="rgb(48.93259%, 59.33106%, 91.19435%)" stop-opacity="1"/>
<stop offset="0.666667" stop-color="rgb(48.66000%, 59.12000%, 91.16000%)" stop-opacity="1"/>
<stop offset="0.670588" stop-color="rgb(48.38741%, 58.90894%, 91.12565%)" stop-opacity="1"/>
<stop offset="0.674510" stop-color="rgb(48.11482%, 58.69788%, 91.09129%)" stop-opacity="1"/>
<stop offset="0.678431" stop-color="rgb(47.84224%, 58.48682%, 91.05694%)" stop-opacity="1"/>
<stop offset="0.682353" stop-color="rgb(47.56965%, 58.27576%, 91.02259%)" stop-opacity="1"/>
<stop offset="0.686275" stop-color="rgb(47.29706%, 58.06471%, 90.98824%)" stop-opacity="1"/>
<stop offset="0.690196" stop-color="rgb(47.02447%, 57.85365%, 90.95388%)" stop-opacity="1"/>
<stop offset="0.694118" stop-color="rgb(46.75188%, 57.64259%, 90.91953%)" stop-opacity="1"/>
<stop offset="0.698039" stop-color="rgb(46.47929%, 57.43153%, 90.88518%)" stop-opacity="1"/>
<stop offset="0.701961" stop-color="rgb(46.20671%, 57.22047%, 90.85082%)" stop-opacity="1"/>
<stop offset="0.705882" stop-color="rgb(45.93412%, 57.00941%, 90.81647%)" stop-opacity="1"/>
<stop offset="0.709804" stop-color="rgb(45.66153%, 56.79835%, 90.78212%)" stop-opacity="1"/>
<stop offset="0.713725" stop-color="rgb(45.38894%, 56.58729%, 90.74776%)" stop-opacity="1"/>
<stop offset="0.717647" stop-color="rgb(45.11635%, 56.37624%, 90.71341%)" stop-opacity="1"/>
<stop offset="0.721569" stop-color="rgb(44.84376%, 56.16518%, 90.67906%)" stop-opacity="1"/>
<stop offset="0.725490" stop-color="rgb(44.57118%, 55.95412%, 90.64471%)" stop-opacity="1"/>
<stop offset="0.729412" stop-color="rgb(44.29859%, 55.74306%, 90.61035%)" stop-opacity="1"/>
<stop offset="0.733333" stop-color="rgb(44.02600%, 55.53200%, 90.57600%)" stop-opacity="1"/>
<stop offset="0.737255" stop-color="rgb(43.75341%, 55.32094%, 90.54165%)" stop-opacity="1"/>
<stop offset="0.741176" stop-color="rgb(43.48082%, 55.10988%, 90.50729%)" stop-opacity="1"/>
<stop offset="0.745098" stop-color="rgb(43.20824%, 54.89882%, 90.47294%)" stop-opacity="1"/>
<stop offset="0.749020" stop-color="rgb(42.93565%, 54.68776%, 90.43859%)" stop-opacity="1"/>
<stop offset="0.752941" stop-color="rgb(42.66306%, 54.47671%, 90.40424%)" stop-opacity="1"/>
<stop offset="0.756863" stop-color="rgb(42.39047%, 54.26565%, 90.36988%)" stop-opacity="1"/>
<stop offset="0.760784" stop-color="rgb(42.11788%, 54.05459%, 90.33553%)" stop-opacity="1"/>
<stop offset="0.764706" stop-color="rgb(41.84529%, 53.84353%, 90.30118%)" stop-opacity="1"/>
<stop offset="0.768627" stop-color="rgb(41.57271%, 53.63247%, 90.26682%)" stop-opacity="1"/>
<stop offset="0.772549" stop-color="rgb(41.30012%, 53.42141%, 90.23247%)" stop-opacity="1"/>
<stop offset="0.776471" stop-color="rgb(41.02753%, 53.21035%, 90.19812%)" stop-opacity="1"/>
<stop offset="0.780392" stop-color="rgb(40.75494%, 52.99929%, 90.16376%)" stop-opacity="1"/>
<stop offset="0.784314" stop-color="rgb(40.48235%, 52.78824%, 90.12941%)" stop-opacity="1"/>
<stop offset="0.788235" stop-color="rgb(40.20976%, 52.57718%, 90.09506%)" stop-opacity="1"/>
<stop offset="0.792157" stop-color="rgb(39.93718%, 52.36612%, 90.06071%)" stop-opacity="1"/>
<stop offset="0.796078" stop-color="rgb(39.66459%, 52.15506%, 90.02635%)" stop-opacity="1"/>
<stop offset="0.800000" stop-color="rgb(39.39200%, 51.94400%, 89.99200%)" stop-opacity="1"/>
<stop offset="0.803922" stop-color="rgb(39.11941%, 51.73294%, 89.95765%)" stop-opacity="1"/>
<stop offset="0.807843" stop-color="rgb(38.84682%, 51.52188%, 89.92329%)" stop-opacity="1"/>
<stop offset="0.811765" stop-color="rgb(38.57424%, 51.31082%, 89.88894%)" stop-opacity="1"/>
<stop offset="0.815686" stop-color="rgb(38.30165%, 51.09976%, 89.85459%)" stop-opacity="1"/>
<stop offset="0.819608" stop-color="rgb(38.02906%, 50.88871%, 89.82024%)" stop-opacity="1"/>
<stop offset="0.823529" stop-color="rgb(37.75647%, 50.67765%, 89.78588%)" stop-opacity="1"/>
<stop offset="0.827451" stop-color="rgb(37.48388%, 50.46659%, 89.75153%)" stop-opacity="1"/>
<stop offset="0.831373" stop-color="rgb(37.21129%, 50.25553%, 89.71718%)" stop-opacity="1"/>
<stop offset="0.835294" stop-color="rgb(36.93871%, 50.04447%, 89.68282%)" stop-opacity="1"/>
<stop offset="0.839216" stop-color="rgb(36.66612%, 49.83341%, 89.64847%)" stop-opacity="1"/>
<stop offset="0.843137" stop-color="rgb(36.39353%, 49.62235%, 89.61412%)" stop-opacity="1"/>
<stop offset="0.847059" stop-color="rgb(36.12094%, 49.41129%, 89.57976%)" stop-opacity="1"/>
<stop offset="0.850980" stop-color="rgb(35.84835%, 49.20024%, 89.54541%)" stop-opacity="1"/>
<stop offset="0.854902" stop-color="rgb(35.57576%, 48.98918%, 89.51106%)" stop-opacity="1"/>
<stop offset="0.858824" stop-color="rgb(35.30318%, 48.77812%, 89.47671%)" stop-opacity="1"/>
<stop offset="0.862745" stop-color="rgb(35.03059%, 48.56706%, 89.44235%)" stop-opacity="1"/>
<stop offset="0.866667" stop-color="rgb(34.75800%, 48.35600%, 89.40800%)" stop-opacity="1"/>
<stop offset="0.870588" stop-color="rgb(34.48541%, 48.14494%, 89.37365%)" stop-opacity="1"/>
<stop offset="0.874510" stop-color="rgb(34.21282%, 47.93388%, 89.33929%)" stop-opacity="1"/>
<stop offset="0.878431" stop-color="rgb(33.94024%, 47.72282%, 89.30494%)" stop-opacity="1"/>
<stop offset="0.882353" stop-color="rgb(33.66765%, 47.51176%, 89.27059%)" stop-opacity="1"/>
<stop offset="0.886275" stop-color="rgb(33.39506%, 47.30071%, 89.23624%)" stop-opacity="1"/>
<stop offset="0.890196" stop-color="rgb(33.12247%, 47.08965%, 89.20188%)" stop-opacity="1"/>
<stop offset="0.894118" stop-color="rgb(32.84988%, 46.87859%, 89.16753%)" stop-opacity="1"/>
<stop offset="0.898039" stop-color="rgb(32.57729%, 46.66753%, 89.13318%)" stop-opacity="1"/>
<stop offset="0.901961" stop-color="rgb(32.30471%, 46.45647%, 89.09882%)" stop-opacity="1"/>
<stop offset="0.905882" stop-color="rgb(32.03212%, 46.24541%, 89.06447%)" stop-opacity="1"/>
<stop offset="0.909804" stop-color="rgb(31.75953%, 46.03435%, 89.03012%)" stop-opacity="1"/>
<stop offset="0.913725" stop-color="rgb(31.48694%, 45.82329%, 88.99576%)" stop-opacity="1"/>
<stop offset="0.917647" stop-color="rgb(31.21435%, 45.61224%, 88.96141%)" stop-opacity="1"/>
<stop offset="0.921569" stop-color="rgb(30.94176%, 45.40118%, 88.92706%)" stop-opacity="1"/>
<stop offset="0.925490" stop-color="rgb(30.66918%, 45.19012%, 88.89271%)" stop-opacity="1"/>
<stop offset="0.929412" stop-color="rgb(30.39659%, 44.97906%, 88.85835%)" stop-opacity="1"/>
<stop offset="0.933333" stop-color="rgb(30.12400%, 44.76800%, 88.82400%)" stop-opacity="1"/>
<stop offset="0.937255" stop-color="rgb(29.85141%, 44.55694%, 88.78965%)" stop-opacity="1"/>
<stop offset="0.941176" stop-color="rgb(29.57882%, 44.34588%, 88.75529%)" stop-opacity="1"/>
<stop offset="0.945098" stop-color="rgb(29.30624%, 44.13482%, 88.72094%)" stop-opacity="1"/>
<stop offset="0.949020" stop-color="rgb(29.03365%, 43.92376%, 88.68659%)" stop-opacity="1"/>
<stop offset="0.952941" stop-color="rgb(28.76106%, 43.71271%, 88.65224%)" stop-opacity="1"/>
<stop offset="0.956863" stop-color="rgb(28.48847%, 43.50165%, 88.61788%)" stop-opacity="1"/>
<stop offset="0.960784" stop-color="rgb(28.21588%, 43.29059%, 88.58353%)" stop-opacity="1"/>
<stop offset="0.964706" stop-color="rgb(27.94329%, 43.07953%, 88.54918%)" stop-opacity="1"/>
<stop offset="0.968627" stop-color="rgb(27.67071%, 42.86847%, 88.51482%)" stop-opacity="1"/>
<stop offset="0.972549" stop-color="rgb(27.39812%, 42.65741%, 88.48047%)" stop-opacity="1"/>
<stop offset="0.976471" stop-color="rgb(27.12553%, 42.44635%, 88.44612%)" stop-opacity="1"/>
<stop offset="0.980392" stop-color="rgb(26.85294%, 42.23529%, 88.41176%)" stop-opacity="1"/>
<stop offset="0.984314" stop-color="rgb(26.58035%, 42.02424%, 88.37741%)" stop-opacity="1"/>
<stop offset="0.988235" stop-color="rgb(26.30776%, 41.81318%, 88.34306%)" stop-opacity="1"/>
<stop offset="0.992157" stop-color="rgb(26.03518%, 41.60212%, 88.30871%)" stop-opacity="1"/>
<stop offset="0.996078" stop-color="rgb(25.76259%, 41.39106%, 88.27435%)" stop-opacity="1"/>
<stop offset="1.000000" stop-color="rgb(25.49000%, 41.18000%, 88.24000%)" stop-opacity="1"/>
</linearGradient>
<linearGradient id="text-silver-gradient" x1="0" y1="0" x2="0" y2="1">
    <stop offset="0%" stop-color="#ffffff" />
    <stop offset="100%" stop-color="#e2e2e7" />
</linearGradient>
</defs>
<rect x="180" y="260" width="640" height="480" fill="rgb(3.529412%, 3.529412%, 4.313725%)"/>
<g clip-path="url(#clip-text)">
    <rect x="0" y="450" width="1000" height="100" fill="url(#text-silver-gradient)"/>
</g>
<path fill="rgb(25.489807%, 41.175842%, 88.235474%)" d="M 593.5 562.664062 L 593.5 569.558594 L 573.292969 569.558594 C 569.730469 569.558594 568.152344 571.484375 568.152344 574.230469 C 568.152344 576.621094 569.382812 578.902344 573.992188 578.902344 L 583.222656 578.902344 C 593.96875 578.902344 596.476562 584.855469 596.476562 590.523438 C 596.476562 597.179688 592.914062 602.085938 583.921875 602.085938 L 561.964844 602.085938 L 561.964844 595.191406 L 584.15625 595.191406 C 587.894531 595.191406 589.585938 593.148438 589.585938 590.289062 C 589.585938 587.71875 588.242188 585.382812 583.394531 585.382812 L 574.226562 585.382812 C 563.714844 585.382812 561.265625 579.484375 561.265625 573.996094 C 561.265625 567.453125 564.769531 562.664062 573.527344 562.664062 Z M 516.175781 594.609375 C 516.175781 595.078125 516.46875 595.253906 516.9375 595.253906 L 530.367188 595.253906 C 534.515625 595.253906 536.441406 593.324219 536.441406 590.113281 C 536.441406 586.785156 534.398438 585.03125 530.367188 585.03125 L 516.175781 585.03125 Z M 516.175781 579.308594 L 530.191406 579.308594 C 534.28125 579.308594 536.265625 577.789062 536.265625 574.578125 C 536.265625 571.484375 534.453125 569.441406 530.25 569.441406 L 516.9375 569.441406 C 516.46875 569.441406 516.175781 569.675781 516.175781 570.140625 Z M 530.019531 562.664062 C 539.304688 562.664062 543.214844 567.046875 543.214844 573.472656 C 543.214844 578.023438 541.230469 580.769531 537.550781 582.230469 C 541.289062 583.746094 543.390625 586.667969 543.390625 591.222656 C 543.390625 597.53125 539.476562 602.085938 530.191406 602.085938 L 512.671875 602.085938 C 510.453125 602.085938 509.402344 601.03125 509.402344 598.871094 L 509.402344 565.878906 C 509.402344 563.71875 510.453125 562.664062 512.671875 562.664062 Z M 455.851562 602.085938 L 448.257812 602.085938 L 462.097656 567.046875 C 463.558594 563.367188 466.246094 561.964844 470.390625 561.964844 C 474.476562 561.964844 477.164062 563.367188 478.566406 567.046875 L 491.882812 602.085938 L 484.230469 602.085938 L 472.261719 570.375 C 471.910156 569.441406 471.265625 569.03125 470.332031 569.03125 C 469.398438 569.03125 468.757812 569.441406 468.347656 570.375 Z M 410.414062 562.664062 L 410.414062 588.421875 C 410.414062 592.214844 412.28125 595.191406 418.472656 595.191406 L 433.773438 595.191406 L 433.773438 602.085938 L 418.0625 602.085938 C 407.609375 602.085938 403.523438 596.363281 403.523438 588.476562 L 403.523438 562.664062 Z M 410.414062 562.664062"/>
<g clip-path="url(#clip-orbits)">
    <rect x="0" y="260" width="1000" height="500" fill="url(#orbit-gradient)"/>
</g>
</svg>