<svg class="pava-logo-stacked" role="img" aria-hidden="true" width="440" height="491" viewBox="0 0 440 491" fill="none" xmlns="http://www.w3.org/2000/svg">
<path d="M137.951 138.125C182.562 138.125 205.813 118.721 205.813 81.477C205.813 44.2327 181.782 24.8295 137.171 24.8295H85.9871V138.125H137.951ZM137.212 0C198.829 0 231.815 28.3238 231.815 81.477C231.815 134.63 199.24 162.954 137.992 162.954H86.0282V236.662H59.6559V0H137.212Z" fill="#68ACE5"></path>
<path d="M330.28 46.9459C326.008 35.6822 322.516 26.3917 320.585 18.9921C318.655 26.3506 315.163 35.6822 310.891 46.9459L266.691 149.758H374.48L330.28 46.9459ZM229.843 236.703H201.171L303.127 0H338.413L440 236.703H411.697L384.544 174.218H256.585L229.843 236.703Z" fill="#009B77"></path>
<path d="M92.0257 491L-8 254.297H21.8639L97.8588 436.655C101.35 445.945 104.842 456.058 107.553 464.567C109.895 456.058 113.345 445.945 116.878 436.655L194.023 254.297H222.737L122.711 491H92.0668H92.0257Z" fill="#97C11F"></path>
<path d="M309.905 301.284C305.633 290.021 302.141 280.73 300.21 273.33C298.28 280.689 294.788 290.021 290.516 301.284L246.316 404.097H354.105L309.905 301.284ZM209.51 491H180.837L282.793 254.297H318.08L419.666 491H391.363L364.21 428.515H236.252L209.51 491Z" fill="#0077D8"></path>
</svg>
